<svg width="28" height="29" viewBox="0 0 28 29" fill="none" xmlns="http://www.w3.org/2000/svg">
<path d="M21.5482 20.1349L22.0032 23.8216C22.1199 24.7899 21.0816 25.4666 20.2532 24.9649L15.3649 22.0599C14.8282 22.0599 14.3032 22.0249 13.7899 21.9549C14.6532 20.9399 15.1666 19.6566 15.1666 18.2682C15.1666 14.9549 12.2966 12.2716 8.7499 12.2716C7.39657 12.2716 6.14824 12.6566 5.10991 13.3333C5.07491 13.0416 5.06323 12.7499 5.06323 12.4466C5.06323 7.13824 9.67157 2.83325 15.3649 2.83325C21.0582 2.83325 25.6666 7.13824 25.6666 12.4466C25.6666 15.5966 24.0449 18.3849 21.5482 20.1349Z" stroke="#9095A0" stroke-width="1.5" stroke-linecap="round" stroke-linejoin="round"/>
<path d="M15.1666 18.2683C15.1666 19.6567 14.6533 20.94 13.7899 21.955C12.6349 23.355 10.8033 24.2533 8.74992 24.2533L5.70492 26.0617C5.19158 26.3767 4.53825 25.945 4.60825 25.35L4.89992 23.0517C3.33658 21.9667 2.33325 20.2283 2.33325 18.2683C2.33325 16.215 3.42992 14.4067 5.10992 13.3334C6.14826 12.6567 7.39659 12.2717 8.74992 12.2717C12.2966 12.2717 15.1666 14.955 15.1666 18.2683Z" stroke="#9095A0" stroke-width="1.5" stroke-linecap="round" stroke-linejoin="round"/>
</svg>
