<svg width="28" height="29" viewBox="0 0 28 29" fill="none" xmlns="http://www.w3.org/2000/svg">
<path d="M14 8.01343V11.8984" stroke="#9095A0" stroke-width="1.5" stroke-miterlimit="10" stroke-linecap="round"/>
<path d="M14.0232 2.83325C9.72988 2.83325 6.25321 6.30992 6.25321 10.6033V13.0533C6.25321 13.8466 5.92655 15.0366 5.51821 15.7133L4.03655 18.1866C3.12655 19.7149 3.75655 21.4183 5.43655 21.9783C11.0132 23.8333 17.0449 23.8333 22.6215 21.9783C24.1965 21.4533 24.8732 19.6099 24.0215 18.1866L22.5399 15.7133C22.1315 15.0366 21.8049 13.8349 21.8049 13.0533V10.6033C21.7932 6.33325 18.2932 2.83325 14.0232 2.83325Z" stroke="#9095A0" stroke-width="1.5" stroke-miterlimit="10" stroke-linecap="round"/>
<path d="M17.885 22.4568C17.885 24.5918 16.135 26.3418 14 26.3418C12.9383 26.3418 11.9583 25.8985 11.2583 25.1985C10.5583 24.4985 10.115 23.5185 10.115 22.4568" stroke="#9095A0" stroke-width="1.5" stroke-miterlimit="10"/>
</svg>
