<svg width="24" height="24" viewBox="0 0 24 24" fill="none" xmlns="http://www.w3.org/2000/svg">
<path d="M21.97 18.3295C21.97 18.6895 21.89 19.0595 21.72 19.4195C21.55 19.7795 21.33 20.1195 21.04 20.4395C20.55 20.9795 20.01 21.3695 19.4 21.6195C18.8 21.8695 18.15 21.9995 17.45 21.9995C16.43 21.9995 15.34 21.7595 14.19 21.2695C13.04 20.7795 11.89 20.1195 10.75 19.2895C9.6 18.4495 8.51 17.5195 7.47 16.4895C6.44 15.4495 5.51 14.3595 4.68 13.2195C3.86 12.0795 3.2 10.9395 2.72 9.80951C2.24 8.66951 2 7.57951 2 6.53951C2 5.85951 2.12 5.20951 2.36 4.60951C2.6 3.99951 2.98 3.43951 3.51 2.93951C4.15 2.30951 4.85 1.99951 5.59 1.99951C5.87 1.99951 6.15 2.05951 6.4 2.17951C6.66 2.29951 6.89 2.47951 7.07 2.73951L9.39 6.00951C9.57 6.25951 9.7 6.48951 9.79 6.70951C9.88 6.91951 9.93 7.12951 9.93 7.31951C9.93 7.55951 9.86 7.79951 9.72 8.02951C9.59 8.25951 9.4 8.49951 9.16 8.73951L8.4 9.52951C8.29 9.63951 8.24 9.76951 8.24 9.92951C8.24 10.0095 8.25 10.0795 8.27 10.1595C8.3 10.2395 8.33 10.2995 8.35 10.3595C8.53 10.6895 8.84 11.1195 9.28 11.6395C9.73 12.1595 10.21 12.6895 10.73 13.2195C11.27 13.7495 11.79 14.2395 12.32 14.6895C12.84 15.1295 13.27 15.4295 13.61 15.6095C13.66 15.6295 13.72 15.6595 13.79 15.6895C13.87 15.7195 13.95 15.7295 14.04 15.7295C14.21 15.7295 14.34 15.6695 14.45 15.5595L15.21 14.8095C15.46 14.5595 15.7 14.3695 15.93 14.2495C16.16 14.1095 16.39 14.0395 16.64 14.0395C16.83 14.0395 17.03 14.0795 17.25 14.1695C17.47 14.2595 17.7 14.3895 17.95 14.5595L21.26 16.9095C21.52 17.0895 21.7 17.2995 21.81 17.5495C21.91 17.7995 21.97 18.0495 21.97 18.3295Z" stroke="url(#paint0_linear_337_6804)" stroke-width="1.5" stroke-miterlimit="10"/>
<path opacity="0.4" d="M18.5 8.99951C18.5 8.39951 18.03 7.47951 17.33 6.72951C16.69 6.03951 15.84 5.49951 15 5.49951" stroke="url(#paint1_linear_337_6804)" stroke-width="1.5" stroke-linecap="round" stroke-linejoin="round"/>
<path opacity="0.4" d="M22 8.99951C22 5.12951 18.87 1.99951 15 1.99951" stroke="url(#paint2_linear_337_6804)" stroke-width="1.5" stroke-linecap="round" stroke-linejoin="round"/>
<defs>
<linearGradient id="paint0_linear_337_6804" x1="2" y1="21.9995" x2="21.97" y2="21.9995" gradientUnits="userSpaceOnUse">
<stop stop-color="#D20653"/>
<stop offset="1" stop-color="#FF951D"/>
</linearGradient>
<linearGradient id="paint1_linear_337_6804" x1="15" y1="8.99951" x2="18.5" y2="8.99951" gradientUnits="userSpaceOnUse">
<stop stop-color="#D20653"/>
<stop offset="1" stop-color="#FF951D"/>
</linearGradient>
<linearGradient id="paint2_linear_337_6804" x1="15" y1="8.99951" x2="22" y2="8.99951" gradientUnits="userSpaceOnUse">
<stop stop-color="#D20653"/>
<stop offset="1" stop-color="#FF951D"/>
</linearGradient>
</defs>
</svg>
