<svg width="25" height="24" viewBox="0 0 25 24" fill="none" xmlns="http://www.w3.org/2000/svg">
<path d="M10.9899 2.23006L5.99991 4.11006C4.84991 4.54006 3.90991 5.90006 3.90991 7.12006V14.5501C3.90991 15.7301 4.68991 17.2801 5.63991 17.9901L9.93991 21.2001C11.3499 22.2601 13.6699 22.2601 15.0799 21.2001L19.3799 17.9901C20.3299 17.2801 21.1099 15.7301 21.1099 14.5501V7.12006C21.1099 5.89006 20.1699 4.53006 19.0199 4.10006L14.0299 2.23006C13.1799 1.92006 11.8199 1.92006 10.9899 2.23006Z" stroke="url(#paint0_linear_186_27716)" stroke-width="1.5" stroke-linecap="round" stroke-linejoin="round"/>
<path opacity="0.4" d="M9.55005 11.8702L11.16 13.4802L15.46 9.18018" stroke="url(#paint1_linear_186_27716)" stroke-width="1.5" stroke-linecap="round" stroke-linejoin="round"/>
<defs>
<linearGradient id="paint0_linear_186_27716" x1="3.90991" y1="21.9951" x2="21.1099" y2="21.9951" gradientUnits="userSpaceOnUse">
<stop stop-color="#D20653"/>
<stop offset="1" stop-color="#FF951D"/>
</linearGradient>
<linearGradient id="paint1_linear_186_27716" x1="9.55005" y1="13.4802" x2="15.46" y2="13.4802" gradientUnits="userSpaceOnUse">
<stop stop-color="#D20653"/>
<stop offset="1" stop-color="#FF951D"/>
</linearGradient>
</defs>
</svg>
