<svg width="22" height="22" viewBox="0 0 22 22" fill="none" xmlns="http://www.w3.org/2000/svg">
<path d="M17.4717 17.1143L15.51 13.2002L13.5483 17.1143" stroke="#D20653" stroke-width="1.5" stroke-linecap="round" stroke-linejoin="round"/>
<path d="M13.9058 16.418H17.1324" stroke="#D20653" stroke-width="1.5" stroke-linecap="round" stroke-linejoin="round"/>
<path d="M15.5102 20.1668C12.9435 20.1668 10.8535 18.086 10.8535 15.5101C10.8535 12.9435 12.9344 10.8535 15.5102 10.8535C18.0769 10.8535 20.1669 12.9343 20.1669 15.5101C20.1669 18.086 18.086 20.1668 15.5102 20.1668Z" stroke="#D20653" stroke-width="1.5" stroke-linecap="round" stroke-linejoin="round"/>
<path d="M4.60183 1.83301H8.19517C10.0927 1.83301 11.0093 2.74969 10.9635 4.60136V8.19468C11.0093 10.0922 10.0927 11.0089 8.19517 10.963H4.60183C2.75017 10.9997 1.8335 10.083 1.8335 8.1855V4.59218C1.8335 2.74968 2.75017 1.83301 4.60183 1.83301Z" stroke="#D20653" stroke-width="1.5" stroke-linecap="round" stroke-linejoin="round"/>
<path d="M5 8L5 4" stroke="#D20653" stroke-width="1.5" stroke-linecap="round" stroke-linejoin="round"/>
<path d="M5 4H8" stroke="#D20653" stroke-width="1.5" stroke-linecap="round" stroke-linejoin="round"/>
<path d="M5 6H8" stroke="#D20653" stroke-width="1.5" stroke-linecap="round" stroke-linejoin="round"/>
<path d="M5 8H8" stroke="#D20653" stroke-width="1.5" stroke-linecap="round" stroke-linejoin="round"/>
<path d="M1.8335 13.75C1.8335 17.2975 4.70266 20.1667 8.25016 20.1667L7.28766 18.5625" stroke="#D20653" stroke-width="1.5" stroke-linecap="round" stroke-linejoin="round"/>
<path d="M20.1667 8.24967C20.1667 4.70217 17.2975 1.83301 13.75 1.83301L14.7125 3.43717" stroke="#D20653" stroke-width="1.5" stroke-linecap="round" stroke-linejoin="round"/>
</svg>
