<svg width="95" height="59" viewBox="0 0 95 59" fill="none" xmlns="http://www.w3.org/2000/svg">
<g id="Group">
<path id="Vector" fill-rule="evenodd" clip-rule="evenodd" d="M87.32 0H4.72C2.36 0 0 2.36 0 4.72V51.92C0 56.64 2.36 59 7.08 59H87.32C92.04 59 94.4 56.64 94.4 51.92V7.08C94.4 2.36 92.04 0 87.32 0Z" fill="#265697"/>
<path id="Vector_2" fill-rule="evenodd" clip-rule="evenodd" d="M88.231 29.7956C88.2351 43.506 77.2422 54.6228 63.6781 54.6257C50.1134 54.6293 39.1158 43.5184 39.1123 29.808V29.7956C39.1088 16.0858 50.1016 4.96838 63.6652 4.96484C77.2293 4.9613 88.2274 16.0728 88.231 29.7832V29.7956Z" fill="#DFAC16"/>
<path id="Vector_3" fill-rule="evenodd" clip-rule="evenodd" d="M30.5698 4.9707C17.0859 5.05743 6.16797 16.1453 6.16797 29.795C6.16797 43.4977 17.1709 54.6192 30.7279 54.6192C37.0905 54.6192 42.8902 52.1678 47.2544 48.151L47.2526 48.1499H47.2579C48.1527 47.3258 48.9861 46.4375 49.7513 45.4919H44.7192C44.0542 44.6799 43.4426 43.8255 42.8884 42.9342H51.5661C52.0958 42.0779 52.5732 41.1903 52.9957 40.2763H41.4553C41.0639 39.4272 40.7211 38.5565 40.4287 37.6685H54.0235C54.8632 35.1285 55.2898 32.4702 55.2872 29.795C55.2882 28.0079 55.0985 26.2259 54.7214 24.4791H39.7083C39.8941 23.5976 40.129 22.7268 40.4086 21.8713H54.0081C53.7064 20.9658 53.353 20.0783 52.9497 19.2133H41.4535C41.8689 18.3157 42.3397 17.4448 42.863 16.6055H51.5342C50.958 15.6787 50.3214 14.7908 49.6285 13.9476H44.7935C45.5494 13.0499 46.3731 12.2116 47.2573 11.4401C42.8931 7.42215 37.0922 4.9707 30.7273 4.9707H30.5698Z" fill="#BF3126"/>
<g id="Group_2">
<path id="Vector_4" fill-rule="evenodd" clip-rule="evenodd" d="M39.5595 36.1153L39.8864 33.8686C39.7076 33.8686 39.445 33.9465 39.2126 33.9465C38.3022 33.9465 38.2019 33.4568 38.2603 33.0951L38.9955 28.5108H40.379L40.7129 26.0263H39.4085L39.674 24.4805H37.0591C37.0013 24.5395 35.5156 33.1724 35.5156 34.2238C35.5156 35.7796 36.38 36.4728 37.5989 36.4616C38.5535 36.454 39.2969 36.1867 39.5595 36.1153ZM40.3879 31.8319C40.3879 35.5672 42.8269 36.4545 44.9049 36.4545C46.823 36.4545 47.6673 36.0215 47.6673 36.0215L48.1275 33.4727C48.1275 33.4727 46.6684 34.1217 45.3509 34.1217C42.5425 34.1217 43.0346 32.0059 43.0346 32.0059H48.3487C48.3487 32.0059 48.6921 30.2932 48.6921 29.5952C48.6921 27.8535 47.8342 25.7319 44.9633 25.7319C42.3343 25.7319 40.3879 28.5952 40.3879 31.8319ZM44.9733 28.099C46.4489 28.099 46.1769 29.7746 46.1769 29.9103H43.2741C43.2741 29.7374 43.5479 28.099 44.9733 28.099ZM61.5323 36.1141L62.0001 33.2331C62.0001 33.2331 60.7169 33.8833 59.8366 33.8833C57.9817 33.8833 57.2377 32.4514 57.2377 30.9133C57.2377 27.7933 58.8336 26.0764 60.6101 26.0764C61.9429 26.0764 63.012 26.8328 63.012 26.8328L63.4392 24.0333C63.4392 24.0333 61.8532 23.3843 60.4939 23.3843C57.4748 23.3843 54.5384 26.0316 54.5384 31.0029C54.5384 34.2993 56.1243 36.4764 59.2448 36.4764C60.1269 36.4764 61.5323 36.1141 61.5323 36.1141ZM25.1771 25.7726C23.3841 25.7726 22.0094 26.3555 22.0094 26.3555L21.63 28.6323C21.63 28.6323 22.7646 28.1662 24.4797 28.1662C25.4532 28.1662 26.1653 28.2771 26.1653 29.0766C26.1653 29.5628 26.078 29.7421 26.078 29.7421C26.078 29.7421 25.3104 29.6772 24.9546 29.6772C22.6932 29.6772 20.3172 30.6525 20.3172 33.5936C20.3172 35.9112 21.876 36.4433 22.8418 36.4433C24.6868 36.4433 25.4821 35.2332 25.5246 35.2291L25.4384 36.2392H27.7406L28.7678 28.9604C28.7678 25.8723 26.1028 25.7726 25.1771 25.7726ZM25.7376 31.6997C25.7871 32.144 25.4614 34.2285 23.8873 34.2285C23.0749 34.2285 22.8637 33.6013 22.8637 33.2302C22.8637 32.5069 23.2531 31.6384 25.1688 31.6384C25.6143 31.639 25.662 31.6873 25.7376 31.6997ZM31.2151 36.3896C31.8045 36.3896 35.1717 36.5413 35.1717 33.029C35.1717 29.7457 32.0547 30.3947 32.0547 29.076C32.0547 28.4187 32.5621 28.2122 33.4913 28.2122C33.8601 28.2122 35.2779 28.3302 35.2779 28.3302L35.6083 25.9968C35.6083 25.9968 34.6902 25.7891 33.1952 25.7891C31.2611 25.7891 29.2976 26.5697 29.2976 29.2406C29.2976 32.2661 32.5715 31.9629 32.5715 33.2373C32.5715 34.0881 31.657 34.1577 30.952 34.1577C29.7319 34.1577 28.6333 33.7346 28.6297 33.7547L28.2811 36.0646C28.3442 36.0846 29.0215 36.3896 31.2151 36.3896ZM83.1924 23.6787L82.6283 27.2163C82.6283 27.2163 81.6442 25.8416 80.1031 25.8416C77.7077 25.8416 75.7106 28.7621 75.7106 32.1169C75.7106 34.2822 76.7755 36.4044 78.9532 36.4044C80.5197 36.4044 81.3876 35.3011 81.3876 35.3011L81.2725 36.2433H83.816L85.8137 23.6746L83.1924 23.6787ZM81.9781 30.5758C81.9781 31.9723 81.2943 33.8373 79.8766 33.8373C78.9355 33.8373 78.4948 33.0384 78.4948 31.7853C78.4948 29.7362 79.4051 28.3845 80.5539 28.3845C81.4955 28.3845 81.9781 29.0371 81.9781 30.5758ZM11.0182 36.2545L12.6101 26.765L12.8437 36.2545H14.6456L18.0062 26.765L16.5176 36.2545H19.1945L21.2565 23.6687H17.1159L14.5376 31.3906L14.4037 23.6687H10.5881L8.49658 36.2545H11.0182ZM51.307 36.2716C52.0681 31.8968 52.2097 28.3444 54.0257 28.9946C54.3443 27.3013 54.6511 26.6464 54.9974 25.9295C54.9974 25.9295 54.8352 25.8947 54.4936 25.8947C53.3224 25.8947 52.4545 27.5119 52.4545 27.5119L52.6882 26.0269H50.2532L48.6219 36.2716H51.307ZM67.5662 25.7726C65.7726 25.7726 64.3979 26.3555 64.3979 26.3555L64.0191 28.6323C64.0191 28.6323 65.1537 28.1662 66.8688 28.1662C67.8423 28.1662 68.5539 28.2771 68.5539 29.0766C68.5539 29.5628 68.4671 29.7421 68.4671 29.7421C68.4671 29.7421 67.6995 29.6772 67.3432 29.6772C65.0823 29.6772 62.7064 30.6525 62.7064 33.5936C62.7064 35.9112 64.2646 36.4433 65.2304 36.4433C67.0753 36.4433 67.8706 35.2332 67.9131 35.2291L67.8276 36.2392H70.1298L71.1564 28.9604C71.1569 25.8723 68.4919 25.7726 67.5662 25.7726ZM68.1267 31.6997C68.1769 32.144 67.8512 34.2285 66.2759 34.2285C65.464 34.2285 65.2534 33.6013 65.2534 33.2302C65.2534 32.5069 65.6422 31.6384 67.5579 31.6384C68.0034 31.639 68.0512 31.6873 68.1267 31.6997ZM73.2615 36.2716C74.0226 31.8968 74.1642 28.3444 75.9796 28.9946C76.2982 27.3013 76.605 26.6464 76.9519 25.9295C76.9519 25.9295 76.7891 25.8947 76.4481 25.8947C75.2769 25.8947 74.409 27.5119 74.409 27.5119L74.6421 26.0269H72.2077L70.5764 36.2716H73.2615Z" fill="white"/>
</g>
</g>
</svg>
