<svg width="96" height="30" viewBox="0 0 96 30" fill="none" xmlns="http://www.w3.org/2000/svg">
<g id="Group">
<path id="Vector" d="M34.8887 28.6684L39.7217 1.48242H47.2734L42.5914 28.6684H34.8887Z" fill="#3C58BF"/>
<path id="Vector_2" d="M34.8887 28.6684L41.081 1.48242H47.2734L42.5914 28.6684H34.8887Z" fill="#293688"/>
<path id="Vector_3" d="M69.9284 1.78443C68.418 1.1803 66.0015 0.576172 62.9808 0.576172C55.4292 0.576172 49.992 4.352 49.992 9.78918C49.992 13.8671 53.7678 15.9815 56.7885 17.3408C59.8091 18.7001 60.7154 19.6063 60.7154 20.8146C60.7154 22.627 58.2988 23.5332 56.1844 23.5332C53.1637 23.5332 51.5023 23.0801 48.9348 22.0229L47.8775 21.5698L46.8203 27.7621C48.6327 28.5173 51.9554 29.2724 55.4292 29.2724C63.4339 29.2724 68.7201 25.4966 68.7201 19.7574C68.7201 16.5857 66.7567 14.1691 62.2257 12.2057C59.5071 10.8464 57.8457 10.0913 57.8457 8.73195C57.8457 7.52369 59.205 6.31543 62.2257 6.31543C64.7932 6.31543 66.6056 6.76853 67.9649 7.37266L68.7201 7.67472L69.9284 1.78443Z" fill="#3C58BF"/>
<path id="Vector_4" d="M69.9284 1.78443C68.418 1.1803 66.0015 0.576172 62.9808 0.576172C55.4292 0.576172 51.3513 4.352 51.3513 9.78918C51.3513 13.8671 53.7678 15.9815 56.7885 17.3408C59.8091 18.7001 60.7154 19.6063 60.7154 20.8146C60.7154 22.627 58.2988 23.5332 56.1844 23.5332C53.1637 23.5332 51.5023 23.0801 48.9348 22.0229L47.8775 21.5698L46.8203 27.7621C48.6327 28.5173 51.9554 29.2724 55.4292 29.2724C63.4339 29.2724 68.7201 25.4966 68.7201 19.7574C68.7201 16.5857 66.7567 14.1691 62.2257 12.2057C59.5071 10.8464 57.8457 10.0913 57.8457 8.73195C57.8457 7.52369 59.205 6.31543 62.2257 6.31543C64.7932 6.31543 66.6056 6.76853 67.9649 7.37266L68.7201 7.67472L69.9284 1.78443Z" fill="#293688"/>
<path id="Vector_5" d="M82.9169 1.48242C81.1045 1.48242 79.7452 1.63346 78.9901 3.44585L67.6626 28.6684H75.8184L77.3287 24.1374H86.9948L87.901 28.6684H95.1506L88.8072 1.48242H82.9169ZM79.4432 19.6064C79.8963 18.2471 82.4638 11.6016 82.4638 11.6016C82.4638 11.6016 83.068 9.94027 83.5211 8.88304L83.9742 11.4506C83.9742 11.4506 85.4845 18.2471 85.7866 19.7574H79.4432V19.6064Z" fill="#3C58BF"/>
<path id="Vector_6" d="M84.7293 1.48242C82.9169 1.48242 81.5576 1.63346 80.8025 3.44585L67.6626 28.6684H75.8184L77.3287 24.1374H86.9948L87.901 28.6684H95.1506L88.8072 1.48242H84.7293ZM79.4432 19.6064C80.0473 18.0961 82.4638 11.6016 82.4638 11.6016C82.4638 11.6016 83.068 9.94027 83.5211 8.88304L83.9742 11.4506C83.9742 11.4506 85.4845 18.2471 85.7866 19.7574H79.4432V19.6064Z" fill="#293688"/>
<path id="Vector_7" d="M20.993 20.5119L20.2378 16.5851C18.8785 12.0541 14.4986 7.07 9.66553 4.65347L16.462 28.8188H24.6178L36.8515 1.63281H28.6957L20.993 20.5119Z" fill="#3C58BF"/>
<path id="Vector_8" d="M20.993 20.5119L20.2378 16.5851C18.8785 12.0541 14.4986 7.07 9.66553 4.65347L16.462 28.8188H24.6178L36.8515 1.63281H30.206L20.993 20.5119Z" fill="#293688"/>
<path id="Vector_9" d="M0 1.48242L1.3593 1.78449C11.0254 4.04998 17.6709 9.78924 20.2384 16.5857L17.5198 3.74792C17.0667 1.93552 15.7074 1.48242 14.0461 1.48242H0Z" fill="#FFBC00"/>
<path id="Vector_10" d="M0 1.48242C9.66611 3.74792 17.6709 9.63821 20.2384 16.4347L17.6709 5.71135C17.2178 3.89895 15.7074 2.84172 14.0461 2.84172L0 1.48242Z" fill="#F7981D"/>
<path id="Vector_11" d="M0 1.48242C9.66611 3.74792 17.6709 9.63821 20.2384 16.4347L18.426 10.5444C17.9729 8.73201 17.3688 6.91961 15.2543 6.16445L0 1.48242Z" fill="#ED7C00"/>
<path id="Vector_12" d="M28.545 19.6062L23.4099 14.4711L20.9933 20.2104L20.3892 16.4345C19.0299 11.9036 14.65 6.91946 9.81689 4.50293L16.6134 28.6682H24.7692L28.545 19.6062ZM42.5911 28.6682L36.0966 22.0228L34.8884 28.6682H42.5911ZM59.9599 19.3042C60.564 19.9083 60.8661 20.3614 60.715 20.9655C60.715 22.7779 58.2985 23.6841 56.184 23.6841C53.1634 23.6841 51.502 23.231 48.9345 22.1738L47.8772 21.7207L46.82 27.9131C48.6324 28.6682 51.9551 29.4234 55.4289 29.4234C60.2619 29.4234 64.1888 28.0641 66.4543 25.6476L59.9599 19.3042ZM68.7198 28.6682H75.8183L77.3287 24.1372H86.9948L87.901 28.6682H95.1506L92.583 17.6428L83.521 8.88289L83.9741 11.2994C83.9741 11.2994 85.4844 18.0959 85.7865 19.6062H79.4431C80.0472 18.0959 82.4638 11.6015 82.4638 11.6015C82.4638 11.6015 83.0679 9.94012 83.521 8.88289" fill="#051244"/>
</g>
</svg>
